<svg xmlns="http://www.w3.org/2000/svg" viewBox="0 0 48 48" fill="none">
  <!-- Six outer cells: light fill + stroke, matching padlock body style -->
  <polygon points="31.56,3.9  37.62,7.4  37.62,14.4 31.56,17.9 25.50,14.4 25.50,7.4"
    fill="rgba(0,102,204,0.12)" stroke="#0066cc" stroke-width="1.5" stroke-linejoin="round"/>
  <polygon points="39.12,17   45.18,20.5 45.18,27.5 39.12,31   33.06,27.5 33.06,20.5"
    fill="rgba(0,102,204,0.12)" stroke="#0066cc" stroke-width="1.5" stroke-linejoin="round"/>
  <polygon points="31.56,30.1 37.62,33.6 37.62,40.6 31.56,44.1 25.50,40.6 25.50,33.6"
    fill="rgba(0,102,204,0.12)" stroke="#0066cc" stroke-width="1.5" stroke-linejoin="round"/>
  <polygon points="16.44,30.1 22.50,33.6 22.50,40.6 16.44,44.1 10.38,40.6 10.38,33.6"
    fill="rgba(0,102,204,0.12)" stroke="#0066cc" stroke-width="1.5" stroke-linejoin="round"/>
  <polygon points="8.88,17    14.94,20.5 14.94,27.5 8.88,31    2.82,27.5  2.82,20.5"
    fill="rgba(0,102,204,0.12)" stroke="#0066cc" stroke-width="1.5" stroke-linejoin="round"/>
  <polygon points="16.44,3.9  22.50,7.4  22.50,14.4 16.44,17.9 10.38,14.4 10.38,7.4"
    fill="rgba(0,102,204,0.12)" stroke="#0066cc" stroke-width="1.5" stroke-linejoin="round"/>
  <!-- Centre cell: solid fill, matching padlock keyhole style -->
  <polygon points="24,17 30.06,20.5 30.06,27.5 24,31 17.94,27.5 17.94,20.5"
    fill="#0066cc"/>
</svg>
